# xmcd
#
# Track frame offsets: 
#        150
#        32104
#        55088
#        94733
#        118011
#        139444
#        170080
#        192782
#        244000
#        271094
#
# Disc length: 4077 seconds
#
# Revision: 0
# Processed by: cddbd v1.5.2PL0 Copyright (c) Steve Scherf et al.
# Submitted via: ExactAudioCopy v0.95b4
#
DISCID=8b0feb0a
DTITLE=Corby Yates Band - Fungus Blues
DYEAR=2006
DGENRE=Blues
TTITLE0=Sweet Fire
TTITLE1=Falling Sky
TTITLE2=High Noon
TTITLE3=Lazy Bones
TTITLE4=Bats In The Belfry
TTITLE5=Phony Faith Healer
TTITLE6=Frequency
TTITLE7=Fungus Blues
TTITLE8=The Hook
TTITLE9=Dogma
EXTD=
EXTT0=
EXTT1=
EXTT2=
EXTT3=
EXTT4=
EXTT5=
EXTT6=
EXTT7=
EXTT8=
EXTT9=
PLAYORDER=
